 http://www.imdb.com/title/tt0492389/


 
http://img25.imageshack.us/img25/4508/1z97dd.jpg

Plot:
In the Oregon wilderness, a real estate developer's new housing subdivision faces a unique group of protesters, local woodland creatures who don't want their homes disturbed.


Source :Our Own (Thanks SLUGGER)
General
Complete name : Furry.Vengeance.2010.CAM.XviD-TA.avi
Format : AVI
Format/Info : Audio Video Interleave
File size : 654 MiB
Duration : 1h 12mn
Overall bit rate : 1 266 Kbps
Writing library : VirtualDub build 32661/release

Video
ID : 0
Format : MPEG-4 Visual
Format profile : AdvancedSimple@L5
Format settings, BVOP : Yes
Format settings, QPel : No
Format settings, GMC : No warppoints
Format settings, Matrix : Default (H.263)
Muxing mode : Packed bitstream
Codec ID : XVID
Codec ID/Hint : XviD
Duration : 1h 12mn
Bit rate : 1 094 Kbps
Width : 480 pixels
Height : 320 pixels
Display aspect ratio : 1.500
Frame rate : 30.000 fps
Resolution : 24 bits
Colorimetry : 4:2:0
Scan type : Progressive
Bits/(Pixel*Frame) : 0.237
Stream size : 565 MiB (86%)
Writing library : XviD 1.2.1 (UTC 2008-12-04)

Audio
ID : 1
Format : MPEG Audio
Format version : Version 1
Format profile : Layer 3
Codec ID : 55
Codec ID/Hint : MP3
Duration : 1h 12mn
Bit rate mode : Constant
Bit rate : 160 Kbps
Channel(s) : 2 channels
Sampling rate : 44.1 KHz
Resolution : 16 bits
Stream size : 82.7 MiB (13%)
Alignment : Split accross interleaves
Interleave, duration : 33 ms (1.00 video frame)
Interleave, preload duration : 500 ms
Writing library : LAME3.97

Notes:
Did all we could with this one. the source is very distorted. We did out best to chop it up and straighten it out before putting it back together, fixing the ar cropping it.